<svg xmlns="http://www.w3.org/2000/svg" width="722.113" height="558.151" data-name="Layer 1"><path fill="#f2f2f2" d="M653.597 534.005H68.515A68.496 68.496 0 0 1 1.62 450.792l26.134-118.787H694.36l26.134 118.787a68.496 68.496 0 0 1-66.897 83.213Zm-624.237-200L3.572 451.22a66.497 66.497 0 0 0 64.943 80.784h585.082a66.497 66.497 0 0 0 64.944-80.784l-25.788-117.216Z"/><path fill="#ffb6b6" d="m579.306 78.378 30.69-4.574-4.847-21.349-18.4 9.267-37.961-14.307a7.717 7.717 0 1 0-5.049 10.2Z"/><path fill="#2cb3ff" d="M641.684 62.419c-2.373 8.995-57.048 19.14-57.02 17.195.077-5.53 3.593-17.135 1.585-20.146-1.148-1.722 14.313-6.121 14.313-6.121s8.533-3.284 19.596-7.293a19.721 19.721 0 0 1 18.85 2.604s5.049 4.766 2.676 13.76Z"/><path fill="#e6e6e6" d="M112.767 437h-19a16 16 0 0 0 0 32h19a16 16 0 0 0 0-32ZM173.767 437h-19a16 16 0 0 0 0 32h19a16 16 0 0 0 0-32ZM234.767 437h-19a16 16 0 0 0 0 32h19a16 16 0 0 0 0-32ZM295.767 437h-19a16 16 0 0 0 0 32h19a16 16 0 0 0 0-32ZM356.767 437h-19a16 16 0 0 0 0 32h19a16 16 0 0 0 0-32ZM417.767 437h-19a16 16 0 0 0 0 32h19a16 16 0 0 0 0-32ZM478.767 437h-19a16 16 0 0 0 0 32h19a16 16 0 0 0 0-32ZM539.767 437h-19a16 16 0 0 0 0 32h19a16 16 0 0 0 0-32ZM600.767 437h-19a16 16 0 0 0 0 32h19a16 16 0 0 0 0-32ZM112.767 370h-19a16 16 0 0 0 0 32h19a16 16 0 0 0 0-32ZM173.767 370h-19a16 16 0 0 0 0 32h19a16 16 0 0 0 0-32Z"/><path fill="#2cb3ff" d="M234.767 370h-19a16 16 0 0 0 0 32h19a16 16 0 0 0 0-32Z"/><path fill="#e6e6e6" d="M295.767 370h-19a16 16 0 0 0 0 32h19a16 16 0 0 0 0-32ZM356.767 370h-19a16 16 0 0 0 0 32h19a16 16 0 0 0 0-32ZM417.767 370h-19a16 16 0 0 0 0 32h19a16 16 0 0 0 0-32ZM478.767 370h-19a16 16 0 0 0 0 32h19a16 16 0 0 0 0-32ZM539.767 370h-19a16 16 0 0 0 0 32h19a16 16 0 0 0 0-32ZM600.767 370h-19a16 16 0 0 0 0 32h19a16 16 0 0 0 0-32ZM141.267 404.5h-19a16 16 0 0 0 0 32h19a16 16 0 0 0 0-32ZM202.267 404.5h-19a16 16 0 0 0 0 32h19a16 16 0 0 0 0-32ZM263.267 404.5h-19a16 16 0 0 0 0 32h19a16 16 0 0 0 0-32ZM324.267 404.5h-19a16 16 0 0 0 0 32h19a16 16 0 0 0 0-32ZM385.267 404.5h-19a16 16 0 0 0 0 32h19a16 16 0 0 0 0-32ZM446.267 404.5h-19a16 16 0 0 0 0 32h19a16 16 0 0 0 0-32ZM507.267 404.5h-19a16 16 0 0 0 0 32h19a16 16 0 0 0 0-32ZM568.267 404.5h-19a16 16 0 0 0 0 32h19a16 16 0 0 0 0-32ZM629.267 404.5h-19a16 16 0 0 0 0 32h19a16 16 0 0 0 0-32Z"/><path fill="#fff" d="M558.899 333H164.135a23.645 23.645 0 0 1-23.618-23.618l.026-.226c13.966-60.427 13.96-136.181-.017-238.402l-.01-.136A23.645 23.645 0 0 1 164.137 47h394.763a23.645 23.645 0 0 1 23.618 23.618l-.022.21a566.872 566.872 0 0 0 0 238.345l.022.209A23.645 23.645 0 0 1 558.899 333Z"/><path fill="#e6e6e6" d="M558.899 333H164.135a23.645 23.645 0 0 1-23.618-23.618l.026-.226c13.966-60.427 13.96-136.181-.017-238.402l-.01-.136A23.645 23.645 0 0 1 164.137 47h394.763a23.645 23.645 0 0 1 23.618 23.618l-.022.21a566.872 566.872 0 0 0 0 238.345l.022.209A23.645 23.645 0 0 1 558.899 333Zm-416.382-23.506A21.643 21.643 0 0 0 164.135 331H558.9a21.643 21.643 0 0 0 21.617-21.514 568.845 568.845 0 0 1 0-238.972A21.643 21.643 0 0 0 558.9 49H164.135a21.643 21.643 0 0 0-21.618 21.55c13.993 102.37 13.994 178.306 0 238.944Z"/><path fill="#e6e6e6" d="M517.517 117.5h-319a6.5 6.5 0 0 1 0-13h319a6.5 6.5 0 0 1 0 13ZM517.517 149h-319a6.5 6.5 0 0 1 0-13h319a6.5 6.5 0 0 1 0 13ZM517.517 180.5h-319a6.5 6.5 0 0 1 0-13h319a6.5 6.5 0 0 1 0 13ZM517.517 212h-319a6.5 6.5 0 0 1 0-13h319a6.5 6.5 0 0 1 0 13ZM517.517 243.5h-319a6.5 6.5 0 0 1 0-13h319a6.5 6.5 0 0 1 0 13Z"/><path fill="#2cb3ff" d="M341.517 275h-143a6.5 6.5 0 0 1 0-13h143a6.5 6.5 0 0 1 0 13Z"/><path fill="#e6e6e6" d="M359.699 324.5h-26.324a2.658 2.658 0 0 1-2.069-1.02 3.174 3.174 0 0 1-.6-2.652l12.387-56.046a2.7 2.7 0 0 1 5.32-.08l13.936 56.044a3.175 3.175 0 0 1-.557 2.704 2.657 2.657 0 0 1-2.093 1.05Z"/><path fill="#f2f2f2" d="M690.517 345.5h-658a13.5 13.5 0 0 1 0-27h658a13.5 13.5 0 0 1 0 27Z"/><path fill="#ffb6b6" d="m607.193 311.693-9.602-.001-4.567-37.035 14.171.001-.002 37.035z"/><path fill="#2f2e41" d="m609.642 321-30.96-.001v-.392a12.051 12.051 0 0 1 12.05-12.05h.001l5.655-4.29 10.552 4.29h2.702Z"/><path fill="#ffb6b6" d="m693.95 299.209-8.593 4.283-20.61-31.108 12.684-6.321 16.519 33.146z"/><path fill="#2f2e41" d="m700.294 306.447-27.71 13.81-.174-.35a12.051 12.051 0 0 1 5.41-16.161l3.148-6.363 11.357-.866 2.419-1.206ZM602.939 143.492l52.945 1.854 3.959 7.352s4.146 30.079 2.022 32.202-3.185 2.124-2.123 5.84 3.807 39.222 3.807 39.222 21.871 45.366 22.933 48.02 2.123 1.593 1.062 2.655a39.098 39.098 0 0 0-2.655 3.185h-17.304s-9.318-23.502-17.846-32.593a51.635 51.635 0 0 1-13.612-29.178l-7.175-33.965-15.396 52.025s-2.654 51.494-2.123 54.149l.53 2.654-20.395.228s-2.123-4.475-1.062-6.068.998-1.157-.297-3.764-.764-7.022-.764-7.022 7.654-104.412 7.654-106.005a5.295 5.295 0 0 0-.44-2.388v-2.162l2.033-7.66Z"/><path fill="#2cb3ff" d="M625.767 47.43c-3.447 2.049-5.508 5.813-6.692 9.644a91.389 91.389 0 0 0-3.927 21.835l-1.25 22.186a91.35 91.35 0 0 1-11.627 40.784 7.13 7.13 0 0 0 4.46 10.324c19.19 5.036 55.533-1.286 55.533-1.286s1.548-.516 0-2.064-5.02-9.289-5.02-9.289l4.127-27.117 5.16-54.697c-6.192-7.74-18.645-12.303-18.645-12.303l-3.218-5.792-16.088 1.288Z"/><circle cx="635.979" cy="20.834" r="15.455" fill="#ffb8b8"/><path fill="#2f2e41" d="M655.023 19.916a26.877 26.877 0 0 1-3.676 8.807A5.995 5.995 0 0 1 649.342 31a2.192 2.192 0 0 1-2.785-.348l-.376-.306a7.976 7.976 0 0 0 1.95-1.692 2.716 2.716 0 0 0 .522-2.43 1.673 1.673 0 0 0-2.047-1.093c-.905.355-1.455 1.664-2.402 1.462-.766-.167-.926-1.176-.926-1.97.028-4.15-1.977-10.046-3.53-9.865a12.519 12.519 0 0 1-4.63-.62 12.13 12.13 0 0 0-4.636-.592c-.112.014-.223.035-.342.056a10.267 10.267 0 0 0-1.03-2.249 12.014 12.014 0 0 1-.125 2.548 23.832 23.832 0 0 1-3.857 1.219c-1.434.202-4.588 4.49-4.734 4.052a10.268 10.268 0 0 0-1.03-2.25 12.014 12.014 0 0 1-.126 2.549c-.007.035-.007.063-.014.097-.696-.926-1.12-2.053-.884-1.19-2.333-5.277-1.427-9.058 2.242-13.506a7.055 7.055 0 0 1 2.75-2.207 3.468 3.468 0 0 1 3.383.334 11.384 11.384 0 0 1 11.293-2.41c3.822 1.33 6.767 2.11 7.351 6.12a8.509 8.509 0 0 1 8.153 3.969 12.85 12.85 0 0 1 1.51 9.238Z"/><path fill="#ffb6b6" d="m671.517 120.348.025-31.029-21.832 1.63 6.438 19.57-19.775 35.422a7.717 7.717 0 1 0 9.338 6.504Z"/><path fill="#2cb3ff" d="M664.978 56.294c8.544 3.68 10.475 59.254 8.555 58.939-5.458-.897-16.414-6.093-19.688-4.554-1.873.88-3.933-15.062-3.933-15.062s-1.983-8.926-4.308-20.46a19.721 19.721 0 0 1 5.37-18.257s5.46-4.286 14.004-.606Z"/><path fill="#ffb6b6" d="M137.338 399.19a5.239 5.239 0 0 1 .342-8.025l-5.866-17.669 9.343 2.51 4.138 16.394a5.267 5.267 0 0 1-7.957 6.79Z"/><path fill="#3f3d56" d="M154.27 303.194c1.551.889 10.723-1.313 12.514-.687-.988 6.033 4.382 3.77-1.45 11.693s-17.578 31.679-20.247 40.557-.027 21.391-.427 25.6a43.667 43.667 0 0 0 .036 7.323c-3.15-.04-6.256.614-9.457.197-3.413-9.657-5.707-23.403-7.265-31s-1.616-4.384-.9-8.183.887-1.038.136-4.672 2.285-8.2 5.09-10.804c1.21-3.478 2.773-6.722 3.97-10.165 8.776-7.655 9.353-12.077 18-19.859Z"/><path fill="#ffb6b6" d="M236.404 387.99a5.239 5.239 0 0 1-5.979-5.365l-17.368-6.702 7.876-5.617 15.286 7.225a5.267 5.267 0 0 1 .185 10.46Z"/><path fill="#3f3d56" d="M173.054 313.903c1.672-.632 5.801-9.113 7.424-10.097 4.029 4.598 5.695-.988 8.105 8.55s13.284 33.707 18.443 41.41 16.497 13.617 19.491 16.6a43.666 43.666 0 0 0 5.678 4.627c-2.034 2.408-3.503 5.221-5.86 7.426-9.624-3.503-21.695-10.468-28.55-14.093s-4.411-1.54-6.89-4.506-.237-1.345-3.52-3.076-4.878-6.976-5.105-10.796c-1.917-3.145-3.428-6.414-5.324-9.526-.333-11.64-3.38-14.896-3.892-26.519Z"/><path fill="#ffb6b6" d="m186.123 366.39 8.668 38.681-55.544-3.455 15.104-37.989 31.772 2.763zM176.874 544.917l6.239-.001 2.968-24.065h-9.208l.001 24.066z"/><path fill="#2f2e41" d="m174.761 541.839 9.863-.589v4.226l9.377 6.476a2.64 2.64 0 0 1-1.5 4.811H180.76l-2.024-4.18-.79 4.18h-4.428Z"/><path fill="#ffb6b6" d="m117.905 541.813 6.097 1.322 8.003-22.889-8.999-1.952-5.101 23.519z"/><path fill="#2f2e41" d="m116.492 538.357 9.764 1.515-.896 4.13 7.79 8.317a2.64 2.64 0 0 1-2.485 4.384l-11.475-2.49-1.092-4.513-1.659 3.917-4.326-.939ZM196.209 437.416c-4.379 24.065-5.474 34.455-5.474 34.455s3.284 3.829 1.095 6.018 0 6.562 0 6.562l-4.923 53.053-3.963-.643-9.546-1.535-3.443-.556 2.189-49.769s-2.19-4.378-1.095-5.473c1.095-1.095-1.094-7.657-1.094-7.657l-2.734-51.958-16.958 56.881s1.645 2.19 0 3.829c-1.64 1.639-4.917 9.846-4.917 9.846l-10.085 35.287-.856 2.996-5.26-.984-5.724-1.077-1.052-.195-1.871-.355-1.205-.226-.41-.074-1.981-.373.6-2.66.311-1.4 8.531-37.893.196-.874.208-.924s-1.095-2.733.544-4.378a4.274 4.274 0 0 0 1.095-3.829 1.493 1.493 0 0 1-.147-.183 2.27 2.27 0 0 1-.391-.893 2.96 2.96 0 0 1 1.088-2.752 4.67 4.67 0 0 0 .777-1.113c1.664-3.15 2.501-9.822 2.501-9.822s1.48-52.844 6.324-60.917c.257-.422 5.399-8.523 5.668-8.688 5.467-3.278 48.062 1.25 48.062 1.25s2.58 6.93 2.697 7.652c.63 4.055 4.955 18.958 1.243 39.372Z"/><path fill="#3f3d56" d="M183.266 310.128s.922-4.785-7.935-13.641c-4.689-1.563-12.813-.652-15.629 0-13.024 17.192-10.692 14.159-14.083 23.764a13.529 13.529 0 0 0-.928 6.838c1.563 7.815 4.1 47.928 3.58 50.012s-4.168 4.69-.521 4.69 50.675-.824 49.633-2.387-14.117-69.276-14.117-69.276Z"/><circle cx="168.577" cy="278.545" r="14.938" fill="#ffb6b6"/><path fill="#2f2e41" d="M155.921 284.193c-.081 1.811-1.217 3.373-2.093 4.96a19.789 19.789 0 0 0-.184 18.459c1.22 2.313 2.907 4.377 3.875 6.806a7.731 7.731 0 0 1-.06 6.521c-2.619-2.519-3.897-1.189-6.87-3.388 1.17 3.277.173 3.384 1.346 6.657q-7.569 2.161-15.143 4.334a18.252 18.252 0 0 0 5.221-21.482c-1.846-3.958-5.146-7.221-6.347-11.427a12.399 12.399 0 0 1 17.043-14.713c1.697-.485 3.294 1.49 3.212 3.273Z"/><path fill="#2f2e41" d="M174.683 261.803c-2.008-4.39-7.309-3.497-12.101-2.918a14.894 14.894 0 0 0-11.16 8.281 20.353 20.353 0 0 0-1.103 14.128 15.478 15.478 0 0 0 4.887 8.239c2.531 2.035 14.429 6.849 15.42 2.704-1.239 5.407-4.46 8.486-.773 12.631 1.91-5.737 9.985-11.186 11.895-16.922.287-.864-.893-11.013-.606-11.877.606-1.82 1.213-3.643 1.651-5.511.55-2.346.762-5.037-.696-6.956s-5.129-1.994-5.865.3"/><path fill="#ff6584" d="m172.278 280.07-.638-4.065c.434-5.055-.275-13.097 3.043-14.202l2.03 2.029c-1.284.427-3.725 7.987-4.435 16.238Z"/><path fill="#ccc" d="M317.789 556.96a1.186 1.186 0 0 1-1.19 1.19H36.309a1.19 1.19 0 1 1 0-2.38h280.29a1.187 1.187 0 0 1 1.19 1.19Z"/><path fill="#e6e6e6" d="M464.517 483.005h-206a16 16 0 0 0 0 32h206a16 16 0 0 0 0-32Z"/></svg>